# xmcd
#
# Track frame offsets: 
#        183
#        20565
#        36145
#        49315
#        61620
#        75008
#        97538
#        117110
#        131210
#        144865
#        159125
#        176953
#        207225
#
# Disc length: 3230 seconds
#
# Revision: 0
# Processed by: cddbd v1.5.2PL0 Copyright (c) Steve Scherf et al.
# Submitted via: ExactAudioCopy v0.99pb3
#
DISCID=990c9c0d
DTITLE=Aretha Franklin - Songs of faith
DYEAR=1958
DGENRE=Gospel
TTITLE0=There is a fountain filled with blood
TTITLE1=Precious Lord - Part. I
TTITLE2=Precious Lord - Part. II
TTITLE3=You grow closer
TTITLE4=Never grow old
TTITLE5=The day is past and gone
TTITLE6=He will wash you white as snow
TTITLE7=While the blood runs warm
TTITLE8=Yield not to temptation
TTITLE9=Mother loves her children
TTITLE10=I will trust in the Lord
TTITLE11=The old ship of Zion - Part. I and II
TTITLE12=I'm going through - Part. I and II
EXTD=
EXTT0=
EXTT1=
EXTT2=
EXTT3=
EXTT4=
EXTT5=
EXTT6=
EXTT7=
EXTT8=
EXTT9=
EXTT10=
EXTT11=
EXTT12=
PLAYORDER=
